<?xml version="1.0" encoding="UTF-8" standalone="no"?>
<svg width="17px" height="17px" viewBox="0 0 17 17" version="1.1" xmlns="http://www.w3.org/2000/svg" xmlns:xlink="http://www.w3.org/1999/xlink">
    <!-- Generator: sketchtool 40.1 (33804) - http://www.bohemiancoding.com/sketch -->
    <title>40ACAE8F-BD90-4737-9BC8-2BE06618F803</title>
    <desc>Created with sketchtool.</desc>
    <defs></defs>
    <g id="ipad" stroke="none" stroke-width="1" fill="none" fill-rule="evenodd">
        <g id="feed_ipad" transform="translate(-643.000000, -33.000000)" fill="#FFFFFF">
            <g id="bell" transform="translate(633.000000, 22.000000)">
                <g transform="translate(6.000000, 7.000000)" id="Page-1">
                    <g>
                        <g>
                            <g id="Icon-Set">
                                <path d="M18.7740968,12.0086452 L16.589871,15.7042258 L16.3705161,19.2753226 L5.96541935,13.408129 L9.02212903,11.4372258 L11.2069032,7.74109677 C12.4133548,5.70054839 15.0856452,5.00080645 17.1744516,6.17983871 C19.2643548,7.35777419 19.9805484,9.96754839 18.7740968,12.0086452 L18.7740968,12.0086452 L18.7740968,12.0086452 Z M9.80248387,18.6518065 C9.01883871,18.2098065 8.75012903,17.2314839 9.20254839,16.4659355 L12.0404516,18.066129 C11.5880323,18.8316774 10.586129,19.0932581 9.80248387,18.6518065 L9.80248387,18.6518065 L9.80248387,18.6518065 Z M17.7211935,5.25525806 C15.1092258,3.78283871 11.769,4.65641935 10.2609355,7.20806452 L8.07670968,10.9036452 L4.00054839,13.5326129 L8.25712903,15.9329032 C7.50309677,17.2084516 7.95003226,18.8393548 9.25629032,19.5752903 C10.5625484,20.3123226 12.2323871,19.8752581 12.9864194,18.5997097 L17.2424516,21 L17.5358387,16.2372581 L19.7200645,12.5416774 C21.228129,9.99058065 20.3331613,6.72877419 17.7211935,5.25525806 L17.7211935,5.25525806 L17.7211935,5.25525806 Z" id="bell"></path>
                            </g>
                        </g>
                    </g>
                </g>
            </g>
        </g>
    </g>
</svg>