<?xml version="1.0" encoding="UTF-8" standalone="no"?>
<svg width="24px" height="16px" viewBox="0 0 24 16" version="1.1" xmlns="http://www.w3.org/2000/svg" xmlns:xlink="http://www.w3.org/1999/xlink">
    <!-- Generator: sketchtool 40.1 (33804) - http://www.bohemiancoding.com/sketch -->
    <title>C26DC23B-3E99-4FE4-AFF3-F9A6D3294706</title>
    <desc>Created with sketchtool.</desc>
    <defs>
        <path d="M24,113.999533 C24,111.790652 25.7853773,110 27.9994065,110 L739.000593,110 C741.209405,110 743,111.783744 743,113.999533 L743,916.000467 C743,918.209348 741.214623,920 739.000593,920 L27.9994065,920 C25.7905953,920 24,918.216256 24,916.000467 L24,113.999533 Z" id="path-1"></path>
        <filter x="-50%" y="-50%" width="200%" height="200%" filterUnits="objectBoundingBox" id="filter-2">
            <feOffset dx="0" dy="4" in="SourceAlpha" result="shadowOffsetOuter1"></feOffset>
            <feGaussianBlur stdDeviation="25" in="shadowOffsetOuter1" result="shadowBlurOuter1"></feGaussianBlur>
            <feColorMatrix values="0 0 0 0 0   0 0 0 0 0   0 0 0 0 0  0 0 0 0.1 0" type="matrix" in="shadowBlurOuter1"></feColorMatrix>
        </filter>
    </defs>
    <g id="ipad" stroke="none" stroke-width="1" fill="none" fill-rule="evenodd">
        <g id="feed_ipad" transform="translate(-320.000000, -780.000000)">
            <g id="Rectangle-3" transform="translate(383.500000, 515.000000) rotate(-180.000000) translate(-383.500000, -515.000000) ">
                <use fill="black" fill-opacity="1" filter="url(#filter-2)" xlink:href="#path-1"></use>
                <use fill="#FFFFFF" fill-rule="evenodd" xlink:href="#path-1"></use>
            </g>
            <g id="chat.1" transform="translate(320.000000, 780.000000)" fill="#67687A">
                <g id="Layer_1">
                    <path d="M14.949,2 C14.717,0.861 13.706,0 12.5,0 L2.5,0 C1.122,0 0,1.122 0,2.5 L0,8.5 C0,9.878 1.122,11 2.5,11 L2.806,11 L2.026,13.342 C1.957,13.55 2.031,13.778 2.208,13.906 C2.295,13.969 2.397,14 2.5,14 C2.605,14 2.711,13.967 2.8,13.9 L6.667,11 L9.051,11 C9.283,12.139 10.294,13 11.5,13 L17.333,13 L21.2,15.9 C21.289,15.967 21.395,16 21.5,16 C21.603,16 21.705,15.969 21.792,15.906 C21.97,15.778 22.043,15.55 21.974,15.342 L21.194,13 L21.5,13 C22.878,13 24,11.878 24,10.5 L24,4.5 C24,3.122 22.878,2 21.5,2 L14.949,2 Z M6.2,10.1 L3.48,12.14 L3.974,10.659 C4.026,10.506 4,10.338 3.906,10.208 C3.812,10.077 3.661,10 3.5,10 L2.5,10 C1.673,10 1,9.327 1,8.5 L1,2.5 C1,1.673 1.673,1 2.5,1 L12.5,1 C13.151,1 13.701,1.419 13.908,2 L11.5,2 C10.122,2 9,3.122 9,4.5 L9,10 L6.5,10 C6.391,10 6.286,10.035 6.2,10.1 Z M21.5,12 L20.5,12 C20.339,12 20.188,12.078 20.094,12.208 C20.001,12.339 19.975,12.507 20.026,12.659 L20.52,14.14 L17.8,12.1 C17.713,12.035 17.608,12 17.5,12 L11.5,12 C10.673,12 10,11.327 10,10.5 L10,4.5 C10,3.673 10.673,3 11.5,3 L21.5,3 C22.327,3 23,3.673 23,4.5 L23,10.5 C23,11.327 22.327,12 21.5,12 Z" id="Shape"></path>
                </g>
            </g>
        </g>
    </g>
</svg>