<?xml version="1.0" encoding="UTF-8" standalone="no"?>
<svg width="17px" height="17px" viewBox="0 0 17 17" version="1.1" xmlns="http://www.w3.org/2000/svg" xmlns:xlink="http://www.w3.org/1999/xlink">
    <!-- Generator: sketchtool 40.1 (33804) - http://www.bohemiancoding.com/sketch -->
    <title>1C1981E1-42C6-47C5-9073-768F55024976</title>
    <desc>Created with sketchtool.</desc>
    <defs></defs>
    <g id="ipad" stroke="none" stroke-width="1" fill="none" fill-rule="evenodd">
        <g id="feed_ipad" transform="translate(-498.000000, -35.000000)" fill="#FFFFFF">
            <g id="plus" transform="translate(495.000000, 33.000000)">
                <path d="M11.5,17.9375 C7.392375,17.9375 4.0625,14.6065625 4.0625,10.5 C4.0625,6.3934375 7.392375,3.0625 11.5,3.0625 C15.607625,3.0625 18.9375,6.3934375 18.9375,10.5 C18.9375,14.6065625 15.607625,17.9375 11.5,17.9375 L11.5,17.9375 L11.5,17.9375 Z M11.5,2 C6.80534375,2 3,5.80375 3,10.5 C3,15.19625 6.80534375,19 11.5,19 C16.1946562,19 20,15.19625 20,10.5 C20,5.80375 16.1946562,2 11.5,2 L11.5,2 L11.5,2 Z M14.6875,9.96875 L12.03125,9.96875 L12.03125,7.3125 C12.03125,7.0203125 11.7937812,6.78125 11.5,6.78125 C11.2062188,6.78125 10.96875,7.0203125 10.96875,7.3125 L10.96875,9.96875 L8.3125,9.96875 C8.01871875,9.96875 7.78125,10.2078125 7.78125,10.5 C7.78125,10.7921875 8.01871875,11.03125 8.3125,11.03125 L10.96875,11.03125 L10.96875,13.6875 C10.96875,13.9796875 11.2062188,14.21875 11.5,14.21875 C11.7937812,14.21875 12.03125,13.9796875 12.03125,13.6875 L12.03125,11.03125 L14.6875,11.03125 C14.9812812,11.03125 15.21875,10.7921875 15.21875,10.5 C15.21875,10.2078125 14.9812812,9.96875 14.6875,9.96875 L14.6875,9.96875 L14.6875,9.96875 Z" id="plus-circle"></path>
            </g>
        </g>
    </g>
</svg>