<?xml version="1.0" encoding="UTF-8" standalone="no"?>
<svg width="26px" height="26px" viewBox="0 0 26 26" version="1.1" xmlns="http://www.w3.org/2000/svg" xmlns:xlink="http://www.w3.org/1999/xlink">
    <!-- Generator: sketchtool 40.1 (33804) - http://www.bohemiancoding.com/sketch -->
    <title>557B8D6C-DCFA-4AA0-99E5-E6A28ED83695</title>
    <desc>Created with sketchtool.</desc>
    <defs></defs>
    <g id="ipad" stroke="none" stroke-width="1" fill="none" fill-rule="evenodd">
        <g id="feed_ipad" transform="translate(-570.000000, -29.000000)" fill="#FFFFFF">
            <g id="hunting" transform="translate(567.000000, 26.000000)">
                <g id="hunting-target">
                    <g id="Capa_1">
                        <path d="M15.99676,11.9856939 C13.7594844,11.9856939 11.9489258,13.7962525 11.9489258,16.0335281 C11.9489258,18.2708037 13.7594844,20.0813622 15.99676,20.0813622 C18.2340356,20.0813622 20.0781222,18.2708037 20.0781222,16.0335281 C20.0781222,13.7962525 18.2340356,11.9856939 15.99676,11.9856939 L15.99676,11.9856939 Z M15.99676,18.8986892 C14.417877,18.8986892 13.1315988,17.6154745 13.1315988,16.0335281 C13.1315988,14.4515817 14.4148135,13.168367 15.99676,13.168367 C17.5756429,13.168367 18.8619211,14.4515817 18.8619211,16.0335281 C18.8619211,17.6154745 17.5756429,18.8986892 15.99676,18.8986892 L15.99676,18.8986892 Z M28.4054235,15.4421916 L26.5948649,15.4421916 C26.2991967,10.0776147 21.9526734,5.73104882 16.5880965,5.43542311 L16.5880965,3.59133651 C16.5880965,3.26214018 16.3259563,3 15.99676,3 C15.6675636,3 15.4054235,3.26214018 15.4054235,3.59133651 L15.4054235,5.43542311 C10.0378256,5.76155596 5.75831592,10.0745512 5.42911959,15.4086635 L3.55154746,15.4086635 C3.22235113,15.4086635 2.96021095,15.6708037 2.96021095,16 C2.96021095,16.3291963 3.22235113,16.5913365 3.55154746,16.5913365 L5.42916214,16.5913365 C5.72483039,21.9559134 10.0378256,26.2689086 15.4024025,26.5645769 L15.4024025,28.4086635 C15.4024025,28.7378598 15.6645427,29 15.993739,29 C16.3229354,29 16.5850755,28.7378598 16.5850755,28.4086635 L16.5850755,26.5645769 C21.9831805,26.2689086 26.2961757,21.9559134 26.591844,16.5578084 L28.4024025,16.5578084 C28.7315988,16.5578084 28.993739,16.2956683 28.993739,15.9664719 C28.9997809,15.6372756 28.7346198,15.4421916 28.4054235,15.4421916 L28.4054235,15.4421916 Z M16.5880965,25.4154319 L16.5880965,23.5713453 C16.5880965,23.242149 16.3259563,22.9800088 15.99676,22.9800088 C15.6675636,22.9800088 15.4054235,23.242149 15.4054235,23.5713453 L15.4054235,25.4154319 C10.7297038,25.0862356 6.97753794,21.3340697 6.64834161,16.6583501 L8.45890014,16.6583501 C8.78809647,16.6583501 9.05023665,16.3962099 9.05023665,16.0670136 C9.05023665,15.7378173 8.78809647,15.4756771 8.45890014,15.4756771 L6.64834161,15.4756771 C6.94400986,10.8 10.6961757,7.01430605 15.4054235,6.7186378 L15.4054235,8.5627244 C15.4054235,8.89192073 15.6675636,9.15406091 15.99676,9.15406091 C16.3259563,9.15406091 16.5880965,8.89192073 16.5880965,8.5627244 L16.5880965,6.7186378 C21.2942807,7.01430605 25.0799746,10.7664719 25.3787064,15.4757196 L23.5010917,15.4757196 C23.1718954,15.4757196 22.9097552,15.7378598 22.9097552,16.0670561 C22.9097552,16.3962525 23.1718954,16.6583927 23.5010917,16.6583927 L25.3787064,16.6583927 C25.0830381,21.3675978 21.2973442,25.1197637 16.5880965,25.4154319 L16.5880965,25.4154319 Z" id="Shape"></path>
                    </g>
                </g>
            </g>
        </g>
    </g>
</svg>