<?xml version="1.0" encoding="UTF-8" standalone="no"?>
<svg width="18px" height="17px" viewBox="0 0 18 17" version="1.1" xmlns="http://www.w3.org/2000/svg" xmlns:xlink="http://www.w3.org/1999/xlink">
    <!-- Generator: sketchtool 40.1 (33804) - http://www.bohemiancoding.com/sketch -->
    <title>3E06AD5E-733B-4C6D-B1F9-15C07EF03771</title>
    <desc>Created with sketchtool.</desc>
    <defs></defs>
    <g id="ipad" stroke="none" stroke-width="1" fill="none" fill-rule="evenodd">
        <g id="feed_ipad" transform="translate(-496.000000, -779.000000)" fill="#67687A">
            <g id="like" transform="translate(494.000000, 777.000000)">
                <g transform="translate(0.000000, 0.000000)" id="Capa_1">
                    <g>
                        <path d="M19.9691923,7.18228 C19.7064615,4.34192 17.6596538,2.28118 15.0981154,2.28118 C13.3915769,2.28118 11.8290385,3.1832 10.9498077,4.62888 C10.0785385,3.1645 8.58003846,2.28084 6.90084615,2.28084 C4.33965385,2.28084 2.2925,4.34158 2.03011538,7.18194 C2.00934615,7.3074 1.92419231,7.96768 2.18311538,9.04446 C2.55626923,10.59758 3.41819231,12.01028 4.67507692,13.12888 L10.9456538,18.71814 L17.3238846,13.12922 C18.5807692,12.01028 19.4426923,10.59792 19.8158462,9.04446 C20.0747692,7.96802 19.9896154,7.30774 19.9691923,7.18228 L19.9691923,7.18228 Z M19.1418846,8.88874 C18.8012692,10.30722 18.0116923,11.59956 16.8607308,12.62364 L10.9498077,17.80354 L5.14030769,12.625 C3.98726923,11.59888 3.19803846,10.30688 2.85707692,8.8884 C2.612,7.86942 2.71273077,7.2938 2.71307692,7.29006 L2.71826923,7.25572 C2.94326923,4.76726 4.70207692,2.96084 6.90084615,2.96084 C8.52326923,2.96084 9.9515,3.94004 10.6292692,5.51594 L10.9480769,6.25816 L11.2668846,5.51594 C11.9339231,3.96418 13.4376154,2.96118 15.0984615,2.96118 C17.2968846,2.96118 19.0560385,4.7676 19.2855385,7.28836 C19.2862308,7.2938 19.3869615,7.86976 19.1418846,8.88874 L19.1418846,8.88874 Z" id="Shape"></path>
                    </g>
                </g>
            </g>
        </g>
    </g>
</svg>