<?xml version="1.0" encoding="UTF-8" standalone="no"?>
<svg width="18px" height="18px" viewBox="0 0 18 18" version="1.1" xmlns="http://www.w3.org/2000/svg" xmlns:xlink="http://www.w3.org/1999/xlink">
    <!-- Generator: sketchtool 40.1 (33804) - http://www.bohemiancoding.com/sketch -->
    <title>8B7C9C0D-5590-4615-8BFB-5AE37A94450C</title>
    <desc>Created with sketchtool.</desc>
    <defs></defs>
    <g id="ipad" stroke="none" stroke-width="1" fill="none" fill-rule="evenodd" opacity="0.200000003">
        <g id="feed_ipad" transform="translate(-673.000000, -852.000000)" fill="#000000">
            <g id="plane" transform="translate(673.000000, 852.000000)">
                <g id="paper-plane" transform="translate(0.000000, 0.000000)">
                    <g id="Layer_1">
                        <g id="Group">
                            <path d="M10.8,18 C10.584,18 10.44,17.928 10.296,17.784 L0.216,7.704 C0.072,7.56 0,7.272 0,7.056 C0.072,6.84 0.216,6.624 0.432,6.552 L16.272,0.792 C16.56,0.72 16.848,0.792 16.992,0.936 C17.208,1.152 17.28,1.44 17.136,1.656 L11.376,17.496 C11.304,17.712 11.088,17.928 10.872,17.928 C10.872,18 10.872,18 10.8,18 L10.8,18 Z M2.016,7.488 L10.512,15.984 L15.336,2.664 L2.016,7.488 L2.016,7.488 Z" id="Shape"></path>
                            <path d="M4.32,11.52 C4.104,11.52 3.888,11.448 3.744,11.232 C3.528,10.944 3.528,10.44 3.888,10.224 L16.128,0.864 C16.416,0.648 16.92,0.648 17.136,1.008 C17.352,1.296 17.352,1.8 16.992,2.016 L4.752,11.376 C4.608,11.448 4.464,11.52 4.32,11.52 L4.32,11.52 Z" id="Shape"></path>
                            <path d="M4.32,17.28 C3.888,17.28 3.6,16.992 3.6,16.56 L3.6,10.8 C3.6,10.368 3.888,10.08 4.32,10.08 C4.752,10.08 5.04,10.368 5.04,10.8 L5.04,16.56 C5.04,16.992 4.752,17.28 4.32,17.28 L4.32,17.28 Z" id="Shape"></path>
                            <path d="M4.32,17.28 C4.176,17.28 4.032,17.208 3.888,17.136 C3.6,16.92 3.528,16.416 3.816,16.128 L6.336,12.96 C6.552,12.672 7.056,12.6 7.344,12.888 C7.632,13.104 7.704,13.608 7.416,13.896 L4.824,17.064 C4.752,17.208 4.536,17.28 4.32,17.28 L4.32,17.28 Z" id="Shape"></path>
                        </g>
                    </g>
                </g>
            </g>
        </g>
    </g>
</svg>