<?xml version="1.0" encoding="UTF-8" standalone="no"?>
<svg width="17px" height="17px" viewBox="0 0 17 17" version="1.1" xmlns="http://www.w3.org/2000/svg" xmlns:xlink="http://www.w3.org/1999/xlink">
    <!-- Generator: sketchtool 40.1 (33804) - http://www.bohemiancoding.com/sketch -->
    <title>5EB66691-BB91-443E-9114-745BF9E1F0DA</title>
    <desc>Created with sketchtool.</desc>
    <defs></defs>
    <g id="ipad" stroke="none" stroke-width="1" fill="none" fill-rule="evenodd">
        <g id="feed_ipad" transform="translate(-266.000000, -779.000000)" fill="#4990E2">
            <g id="plus_blue" transform="translate(266.000000, 779.000000)">
                <path d="M8.5,15.9375 C4.392375,15.9375 1.0625,12.6065625 1.0625,8.5 C1.0625,4.3934375 4.392375,1.0625 8.5,1.0625 C12.607625,1.0625 15.9375,4.3934375 15.9375,8.5 C15.9375,12.6065625 12.607625,15.9375 8.5,15.9375 L8.5,15.9375 L8.5,15.9375 Z M8.5,2.27373675e-13 C3.80534375,2.27373675e-13 2.27373675e-13,3.80375 2.27373675e-13,8.5 C2.27373675e-13,13.19625 3.80534375,17 8.5,17 C13.1946563,17 17,13.19625 17,8.5 C17,3.80375 13.1946563,2.27373675e-13 8.5,2.27373675e-13 L8.5,2.27373675e-13 L8.5,2.27373675e-13 Z M11.6875,7.96875 L9.03125,7.96875 L9.03125,5.3125 C9.03125,5.0203125 8.79378125,4.78125 8.5,4.78125 C8.20621875,4.78125 7.96875,5.0203125 7.96875,5.3125 L7.96875,7.96875 L5.3125,7.96875 C5.01871875,7.96875 4.78125,8.2078125 4.78125,8.5 C4.78125,8.7921875 5.01871875,9.03125 5.3125,9.03125 L7.96875,9.03125 L7.96875,11.6875 C7.96875,11.9796875 8.20621875,12.21875 8.5,12.21875 C8.79378125,12.21875 9.03125,11.9796875 9.03125,11.6875 L9.03125,9.03125 L11.6875,9.03125 C11.9812813,9.03125 12.21875,8.7921875 12.21875,8.5 C12.21875,8.2078125 11.9812813,7.96875 11.6875,7.96875 L11.6875,7.96875 L11.6875,7.96875 Z" id="plus-circle"></path>
            </g>
        </g>
    </g>
</svg>