<?xml version="1.0" encoding="UTF-8" standalone="no"?>
<svg width="18px" height="19px" viewBox="0 0 18 19" version="1.1" xmlns="http://www.w3.org/2000/svg" xmlns:xlink="http://www.w3.org/1999/xlink">
    <!-- Generator: sketchtool 40.1 (33804) - http://www.bohemiancoding.com/sketch -->
    <title>FEAC9F66-0F40-417A-954C-38C26F02C607</title>
    <desc>Created with sketchtool.</desc>
    <defs></defs>
    <g id="ipad" stroke="none" stroke-width="1" fill="none" fill-rule="evenodd">
        <g id="feed_ipad" transform="translate(-388.000000, -778.000000)" fill="#67687A">
            <g id="share" transform="translate(386.000000, 776.000000)">
                <g transform="translate(0.000000, 0.000000)" id="Capa_1">
                    <g>
                        <path d="M14.51225,15.4771786 C14.3438214,15.6456071 14.1988571,15.83075 14.0735,16.0265 L8.51921429,12.6550357 C8.66610714,12.2873214 8.74935714,11.8874643 8.74935714,11.468 C8.74935714,11.0485357 8.66610714,10.6486786 8.51953571,10.2809643 L14.0751071,6.93521429 C14.6456429,7.83135714 15.6459286,8.42857143 16.7850714,8.42857143 C18.5574286,8.42857143 19.9993571,6.98664286 19.9993571,5.21428571 C19.9993571,3.44192857 18.5574286,2 16.7850714,2 C15.0127143,2 13.5707857,3.44192857 13.5707857,5.21428571 C13.5707857,5.618 13.6488929,6.00307143 13.7851786,6.35921429 L8.22221429,9.70946429 C7.6475,8.83389286 6.65814286,8.25371429 5.53475,8.25371429 C3.76239286,8.25371429 2.32046429,9.69564286 2.32046429,11.468 C2.32046429,13.2403571 3.76239286,14.6822857 5.53475,14.6822857 C6.65814286,14.6822857 7.64717857,14.1021071 8.22189286,13.2265357 L13.7838929,16.6025 C13.6456786,16.9644286 13.5704643,17.3511071 13.5704643,17.75 C13.5704643,18.6085357 13.90475,19.4159643 14.5119286,20.0228214 C15.1383929,20.6492857 15.9615714,20.9626786 16.78475,20.9626786 C17.6079286,20.9626786 18.4311071,20.6492857 19.0575714,20.0228214 C19.66475,19.4156429 19.9990357,18.6085357 19.9990357,17.75 C19.9990357,16.8914643 19.66475,16.0840357 19.0575714,15.4771786 C17.8043214,14.2236071 15.7655,14.2236071 14.51225,15.4771786 L14.51225,15.4771786 Z M16.7850714,2.64285714 C18.2028929,2.64285714 19.3565,3.79646429 19.3565,5.21428571 C19.3565,6.63210714 18.2028929,7.78571429 16.7850714,7.78571429 C15.36725,7.78571429 14.2136429,6.63210714 14.2136429,5.21428571 C14.2136429,3.79646429 15.3669286,2.64285714 16.7850714,2.64285714 L16.7850714,2.64285714 Z M5.53507143,14.0394286 C4.11725,14.0394286 2.96364286,12.8858214 2.96364286,11.468 C2.96364286,10.0501786 4.11725,8.89657143 5.53507143,8.89657143 C6.95289286,8.89657143 8.1065,10.0501786 8.1065,11.468 C8.1065,12.8858214 6.95289286,14.0394286 5.53507143,14.0394286 L5.53507143,14.0394286 Z M18.6030714,19.5683214 C17.6005357,20.5708571 15.9692857,20.5708571 14.96675,19.5683214 C14.4810714,19.0826429 14.2136429,18.4365714 14.2136429,17.75 C14.2136429,17.0634286 14.4810714,16.4173571 14.96675,15.9316786 C15.4681786,15.43025 16.1264643,15.1798571 16.7850714,15.1798571 C17.4436786,15.1798571 18.1019643,15.43025 18.6033929,15.9316786 C19.0890714,16.4173571 19.3565,17.0634286 19.3565,17.75 C19.3565,18.4365714 19.0890714,19.0826429 18.6030714,19.5683214 L18.6030714,19.5683214 Z" id="Shape"></path>
                    </g>
                </g>
            </g>
        </g>
    </g>
</svg>